<?xml version="1.0" standalone="no"?>
<!DOCTYPE svg PUBLIC "-//W3C//DTD SVG 20010904//EN"
 "http://www.w3.org/TR/2001/REC-SVG-20010904/DTD/svg10.dtd">
<svg version="1.0" xmlns="http://www.w3.org/2000/svg"
 width="1024.000000pt" height="1024.000000pt" viewBox="0 0 1024.000000 1024.000000"
 preserveAspectRatio="xMidYMid meet">

<g transform="translate(0.000000,1024.000000) scale(0.100000,-0.100000)"
fill="#000000" stroke="none">
<path d="M4685 7484 c-393 -41 -795 -208 -1108 -462 -345 -280 -609 -711 -688
-1122 -34 -179 -47 -304 -48 -445 -3 -543 171 -1000 541 -1416 171 -192 496
-409 763 -509 268 -100 494 -143 760 -143 191 0 299 14 520 69 278 69 566 219
804 418 322 268 518 573 645 1001 52 173 67 276 73 485 8 285 -16 456 -104
740 -85 275 -250 542 -487 788 -291 301 -666 497 -1106 578 -82 15 -473 27
-565 18z m366 -164 c256 -26 460 -80 657 -175 511 -247 879 -689 1013 -1217
43 -173 60 -315 61 -523 1 -158 -2 -197 -25 -315 -54 -269 -141 -486 -280
-695 -77 -117 -113 -161 -217 -269 -343 -356 -778 -551 -1276 -573 -410 -18
-804 92 -1147 321 -256 171 -454 384 -596 642 -163 295 -233 564 -233 899 -1
424 93 750 307 1076 173 262 398 464 700 628 292 159 686 236 1036 201z"/>
<path d="M4139 6550 c-163 -28 -360 -119 -464 -216 l-60 -56 -3 -721 c-2 -397
0 -750 3 -785 l7 -62 1283 2 1283 3 2 783 1 783 -58 61 c-46 48 -77 69 -152
104 -206 96 -314 121 -494 111 -173 -9 -395 -81 -554 -178 l-32 -20 -23 21
c-67 62 -233 136 -371 164 -81 17 -285 20 -368 6z m394 -129 c85 -22 151 -52
239 -109 59 -38 78 -68 78 -122 0 -15 8 -38 18 -50 l18 -22 32 28 c23 21 32
37 32 60 0 28 9 37 83 87 89 61 195 108 303 133 90 21 349 15 439 -10 78 -22
242 -105 248 -125 4 -17 -2 -1313 -6 -1318 -2 -1 -31 11 -65 28 -183 87 -527
109 -757 49 -100 -26 -207 -77 -262 -124 -22 -20 -45 -36 -50 -36 -4 0 -15 13
-24 28 -22 39 -144 109 -236 135 -69 19 -102 21 -288 21 -181 0 -222 -3 -295
-21 -69 -17 -177 -55 -257 -90 -10 -4 -13 111 -13 554 0 308 3 607 6 665 l7
104 83 48 c91 52 197 90 296 105 95 15 280 6 371 -18z m-11 -1477 c69 -17 179
-64 214 -90 17 -12 25 -26 23 -41 -4 -21 -6 -20 -100 18 -124 50 -212 63 -369
55 -143 -7 -239 -24 -347 -61 -41 -15 -77 -24 -80 -21 -3 3 2 17 12 32 18 28
127 83 204 104 115 31 330 33 443 4z m1234 -13 c127 -34 198 -64 219 -94 35
-50 8 -49 -148 5 -119 40 -125 41 -287 46 -180 5 -258 -5 -409 -54 -42 -13
-82 -24 -89 -24 -24 0 -8 44 25 66 35 23 188 69 279 84 106 16 286 4 410 -29z"/>
<path d="M4513 6195 c-15 -19 -56 -56 -91 -82 l-62 -47 32 -25 c46 -35 157
-139 340 -320 l157 -155 133 130 c190 183 372 350 388 356 12 4 10 9 -5 29
-33 40 -141 139 -153 139 -6 0 -50 -43 -98 -95 -48 -53 -128 -132 -177 -177
l-89 -82 -99 103 c-54 56 -128 138 -165 182 -37 43 -71 79 -75 79 -5 0 -21
-16 -36 -35z"/>
<path d="M4279 6216 c-3 -3 -78 -6 -167 -8 l-162 -2 0 -48 0 -48 135 0 135 0
17 28 c9 15 28 39 42 55 13 15 20 27 15 27 -6 0 -13 -2 -15 -4z"/>
<path d="M5513 6210 c1 -3 16 -26 32 -52 l30 -47 61 -1 c34 0 95 -3 137 -6
l77 -7 0 52 c0 32 -5 53 -12 56 -19 6 -329 11 -325 5z"/>
<path d="M3950 5928 l0 -53 190 0 c105 0 190 2 190 6 0 3 -21 26 -46 52 l-45
47 -145 0 -144 0 0 -52z"/>
<path d="M5545 5972 c-16 -11 -78 -92 -71 -92 3 0 88 -1 189 -1 l182 0 0 48 0
48 -145 2 c-80 2 -150 0 -155 -5z"/>
<path d="M4153 5752 l-203 -2 0 -50 0 -50 275 2 c151 2 275 7 275 11 0 4 -15
27 -32 51 -30 40 -37 44 -73 42 -22 0 -131 -2 -242 -4z"/>
<path d="M5340 5740 c0 -5 -13 -25 -30 -43 -16 -19 -30 -37 -30 -41 0 -3 128
-6 285 -6 l285 0 0 50 0 50 -255 0 c-157 0 -255 -4 -255 -10z"/>
<path d="M4058 5533 l-108 -4 0 -44 0 -45 365 0 365 0 -6 43 c-4 23 -8 44 -10
46 -5 5 -476 8 -606 4z"/>
<path d="M5145 5530 c-1 -3 -6 -23 -9 -45 l-7 -40 361 -4 360 -3 0 46 0 46
-207 2 c-355 4 -495 3 -498 -2z"/>
<path d="M4893 5407 l-43 -10 0 -146 c0 -80 4 -152 9 -160 10 -16 70 -6 76 12
6 18 11 317 5 316 -3 -1 -24 -6 -47 -12z"/>
<path d="M4073 5313 l-123 -4 0 -49 c0 -50 0 -50 28 -43 34 10 638 10 675 0
27 -7 27 -7 27 41 l0 49 -61 7 c-59 6 -283 5 -546 -1z"/>
<path d="M5233 5313 l-113 -4 0 -50 c0 -48 1 -50 23 -43 28 9 585 9 655 -1
l52 -7 0 50 0 49 -92 7 c-87 6 -285 5 -525 -1z"/>
<path d="M5268 4571 c-54 -81 -89 -90 -378 -90 -196 -1 -207 0 -256 23 -29 13
-64 40 -79 60 l-27 36 -554 0 c-306 0 -555 -4 -558 -9 -11 -17 25 -111 54
-145 39 -44 131 -92 205 -106 44 -8 384 -10 1251 -8 l1190 3 76 37 c87 44 147
102 173 171 10 26 16 49 14 51 -2 3 -248 6 -546 8 l-543 3 -22 -34z"/>
<path d="M3718 2903 c1 -54 7 -122 14 -150 7 -34 9 -95 5 -171 -4 -65 -4 -148
0 -185 l6 -67 60 0 60 0 -9 193 c-4 105 -7 253 -5 328 l3 136 -48 7 c-95 13
-89 19 -86 -91z"/>
<path d="M3983 2980 c-62 -37 -51 -95 25 -127 35 -15 54 -9 86 26 22 24 15 64
-16 99 -26 27 -53 28 -95 2z"/>
<path d="M2654 2960 c-147 -58 -232 -213 -204 -372 19 -101 100 -197 209 -245
47 -21 67 -24 126 -21 125 8 224 73 281 185 26 52 29 67 29 153 -1 113 -23
169 -88 225 -103 89 -243 118 -353 75z m225 -143 c80 -53 107 -158 62 -247
-53 -104 -152 -145 -241 -100 -194 99 -132 389 82 377 41 -2 67 -11 97 -30z"/>
<path d="M5314 2654 l0 -321 218 1 218 1 0 63 0 63 -157 -2 -158 -2 0 69 0 69
144 -3 144 -4 -7 32 c-3 18 -6 46 -6 63 l0 30 -134 -7 c-74 -4 -136 -4 -139 1
-2 4 -2 36 1 71 l4 62 154 0 154 0 2 55 c0 30 1 60 2 65 1 7 -78 11 -219 13
l-220 2 -1 -321z"/>
<path d="M4015 2801 c-38 -3 -65 -9 -58 -14 8 -5 12 -70 13 -224 0 -119 2
-218 3 -219 1 -1 28 -4 60 -5 l57 -3 3 237 c1 130 0 236 -3 235 -3 -1 -36 -4
-75 -7z"/>
<path d="M4202 2575 l-3 -235 44 0 c25 0 52 -3 60 -6 13 -5 16 15 19 139 3
137 4 147 27 171 13 14 40 31 59 37 29 10 38 9 60 -8 36 -27 40 -47 41 -200
l1 -133 34 0 c18 0 47 -3 63 -6 l30 -6 -2 129 c-4 191 -12 239 -48 280 -39 44
-76 63 -127 63 -47 0 -75 -12 -107 -47 -24 -25 -45 -31 -39 -10 20 62 19 62
-47 64 l-62 2 -3 -234z"/>
<path d="M4895 2801 c-57 -18 -144 -92 -173 -148 -7 -12 -12 -57 -12 -101 0
-74 2 -82 33 -120 58 -74 129 -112 206 -112 43 0 123 37 170 79 l33 29 -40 21
c-22 11 -44 25 -47 31 -4 7 -19 -2 -38 -21 -29 -28 -37 -30 -79 -26 -56 5
-118 47 -118 79 0 21 2 21 171 15 l172 -6 -6 64 c-3 44 -13 78 -30 108 -50 85
-161 135 -242 108z m89 -101 c38 -14 66 -47 66 -76 l0 -25 -107 7 c-60 3 -110
9 -113 11 -11 10 27 57 60 74 39 21 58 23 94 9z"/>
<path d="M7235 2800 c-16 -5 -45 -23 -64 -40 -37 -34 -64 -36 -69 -5 -4 25
-45 45 -94 45 -29 0 -46 -7 -70 -30 -46 -44 -74 -38 -48 11 10 18 7 19 -47 19
l-58 0 -1 -235 -2 -235 59 0 59 0 0 149 c0 147 0 149 26 175 33 33 54 33 85 0
23 -24 24 -33 27 -175 l4 -149 65 0 c55 0 64 2 59 16 -3 9 -6 72 -7 140 -1
134 5 157 57 190 21 14 29 15 49 4 36 -19 45 -60 45 -206 l0 -134 44 0 c24 0
52 -3 61 -6 15 -6 16 11 13 184 -3 175 -5 193 -24 219 -40 53 -112 79 -169 63z"/>
<path d="M3194 2559 l-2 -241 37 6 c20 3 46 6 59 6 22 0 22 1 22 144 0 136 1
146 23 170 12 14 39 33 60 41 37 15 38 15 67 -14 28 -27 30 -35 30 -103 0 -40
3 -110 7 -155 l6 -83 64 0 65 0 -4 168 c-4 188 -16 232 -71 272 -61 46 -195
33 -212 -21 -4 -11 -15 -19 -27 -19 -18 0 -20 4 -15 35 l6 35 -57 0 -57 0 -1
-241z"/>
<path d="M5817 2794 c-7 -7 23 -64 34 -64 3 0 11 -12 18 -27 7 -16 19 -35 27
-43 28 -29 64 -91 64 -110 0 -10 -6 -23 -13 -27 -7 -4 -31 -33 -52 -63 -22
-30 -52 -67 -67 -82 -16 -15 -28 -32 -28 -38 0 -6 30 -10 75 -10 69 0 75 2 75
21 0 11 12 37 28 57 65 88 68 88 124 -31 l22 -48 68 3 c37 2 68 4 68 5 0 5
-89 144 -112 173 -14 19 -28 42 -29 50 -4 18 20 80 32 80 4 0 11 9 14 21 4 11
26 44 50 74 l43 53 -61 4 c-34 3 -66 3 -70 1 -5 -3 -22 -34 -38 -69 -22 -47
-35 -64 -49 -64 -11 0 -20 7 -20 15 0 8 -4 15 -10 15 -5 0 -10 6 -10 13 0 7
-12 32 -27 55 -27 42 -28 42 -89 42 -33 0 -64 -3 -67 -6z"/>
<path d="M6396 2780 c-56 -29 -67 -41 -64 -68 4 -37 52 -51 76 -23 34 43 136
20 161 -36 19 -41 15 -44 -52 -37 -52 5 -72 3 -115 -16 -29 -12 -66 -38 -82
-57 -25 -29 -30 -42 -30 -88 0 -48 4 -58 31 -84 20 -20 50 -34 86 -42 49 -11
59 -11 89 6 19 10 34 22 34 26 0 4 7 15 16 23 21 21 62 3 44 -20 -23 -27 -5
-39 51 -36 l54 4 -3 180 c-2 99 -7 191 -12 204 -5 13 -28 36 -51 51 -57 37
-173 44 -233 13z m153 -241 c39 -14 42 -49 6 -84 -32 -33 -105 -35 -135 -5
-11 11 -20 25 -20 30 0 17 38 49 67 56 25 5 46 11 49 13 1 1 15 -4 33 -10z"/>
</g>
</svg>
